<svg xmlns="http://www.w3.org/2000/svg" viewBox="0 0 38 42" width="380.001" height="420" fill-rule="evenodd" xmlns:v="https://vecta.io/nano"><path fill="#004482" d="M17.903.286c.679-.381 1.515-.381 2.193 0L36.903 9.72A2.12 2.12 0 0 1 38 11.566v18.867c0 .762-.418 1.466-1.097 1.847l-16.807 9.434c-.679.381-1.515.381-2.193 0L1.096 32.28C.418 31.899 0 31.196 0 30.434V11.567c0-.762.418-1.466 1.097-1.847L17.903.286z"/><path fill="#659ad2" d="M.304 31.404C.038 31.048 0 30.71 0 30.255V11.496c0-.758.417-1.458 1.094-1.836L17.842.28c.677-.379 1.594-.371 2.271.008l16.714 9.331a2.09 2.09 0 0 1 .66.576z"/><path fill="#fff" d="M19 7a14.01 14.01 0 0 1 14 14 14.01 14.01 0 0 1-14 14A14.01 14.01 0 0 1 5 21 14.01 14.01 0 0 1 19 7zm0 7c3.863 0 7 3.136 7 7s-3.137 7-7 7-7-3.137-7-7 3.136-7 7-7z"/><path fill="#00599c" d="M37.485 10.205c.516.483.506 1.211.506 1.784L38 30.373c.004.396-.127.813-.323 1.127L18.593 21z"/></svg>