<svg xmlns="http://www.w3.org/2000/svg" viewBox="30.292 -6.347 451.456 512" xmlns:v="https://vecta.io/nano"><path fill="#264de4" d="M71.377 454.472L30.292-6.347h451.456l-41.129 460.746-184.875 51.254-184.367-51.181z"/><path fill="#2965f1" d="M405.408 425.061l35.148-393.73H256.02v435.146l149.388-41.416z"/><path fill="#ebebeb" d="M124.48 202.243l5.065 56.517H256.02v-56.517H124.48zm-5.041-57.875H256.02V87.85H114.301l5.138 56.518zM256.02 349.025l-.248.066-62.944-16.996-4.023-45.076h-56.736l7.919 88.741L255.76 407.9l.26-.073v-58.802z"/><path fill="#fff" d="M255.825 202.243v56.517h69.595l-6.56 73.299-63.035 17.013v58.8l115.864-32.112.85-9.549 13.28-148.792 1.38-15.176L397.402 87.85H255.825v56.518h79.639l-5.144 57.875h-74.495z"/></svg>