<svg xmlns="http://www.w3.org/2000/svg" viewBox="120.861 -13.095 451 512" xmlns:v="https://vecta.io/nano"><path fill="#e34f26" d="M161.861 446.905l-41-460h451l-41 460-185 52"/><path fill="#ef652a" d="M346.861 458.905l149-41 35-394h-184"/><path fill="#ebebeb" d="M346.861 194.905h-75l-5-58h80v-56h-1-141l1 15 14 156h127v-57zm0 147h-1l-63-17-4-45h-30-26l7 89 116 32h1v-59z"/><path fill="#fff" d="M345.861 194.905v57h70l-7 73-63 17v59l116-32 1-10 13-149 2-15h-16-116zm0-114v35 21h137l1-12 3-29 1-15h-142z"/></svg>