<svg xmlns="http://www.w3.org/2000/svg" viewBox="274.222 160.913 80.027 71.693" fill="#fff" xmlns:v="https://vecta.io/nano"><path d="M285.222 160.913a2.23 2.23 0 0 1 1.19 2.85c-.38 1.55-.13 1.83 1.48 1.87h1.25c2 0 2.28.28 2.18 2.23a4.57 4.57 0 0 0 2.68 1.11l1.84.37c.34.09.85.24.94.49.52 1.44 2 1.58 3 2.2 1.11.6 2.26 1.125 3.44 1.57l4.77 2c1.223.418 2.176 1.389 2.57 2.62a1.62 1.62 0 0 1-1.81.56c-.76-.16-1.51-.4-2.25-.63a17.03 17.03 0 0 0-1.64-.5c-1.61-.28-2.32.25-2.29 1.87 0 2 .16 4 .33 5.93l.86 8.4c.774 6.987 3.683 13.565 8.33 18.84 5.356 6.19 12.61 10.434 20.63 12.07a2.54 2.54 0 0 0 2.86-.89c.719-.825 1.531-1.564 2.42-2.2.518-.346 1.119-.547 1.74-.58 1 0 1.39.6.91 1.54-.239.397-.51.775-.81 1.13l-1.14 1.49 2 .16c.879.02 1.755.107 2.62.26 1.37.34 2.67.61 3.48-.33l3.83.38h2.19a1.29 1.29 0 0 1 1.4 1.25c.09.78 0 1.5-.9 1.78l-2.11.55-3.27 1c-.317.124-.662.166-1 .12-1.223-.337-2.523-.248-3.69.25-2.59 1.09-5.33 1.09-8.03 1.42a54.01 54.01 0 0 1-6.08.5 49.16 49.16 0 0 1-5.92-.22l-9.46-1.14c-7.286-1.256-14.083-4.502-19.64-9.38-4.46-3.78-7.66-8.52-10.6-13.46a58.33 58.33 0 0 1-6.86-17.72c-.44-1.91-1.01-3.72-1.58-5.56-.23-.571-.518-1.118-.86-1.63v-4.39a8.76 8.76 0 0 1 3.47-3c-.93-1.2-.74-2.21.5-2.82a12.05 12.05 0 0 1 1.48-.48c1.6-.55 2.15-1.61 1.45-3.14a1.18 1.18 0 0 1 .39-1.61c.36-.3.75-.56 1.12-.85 1.47-1.15 1.49-1.4.19-2.73s-1.37-2.3.18-3.55h2.22zm2.52 32.29c.25 1.217.198 2.477-.15 3.67a1.37 1.37 0 0 1-1.23-1.33 7.84 7.84 0 0 1 .31-1.9c-1-1.07-1.46-.92-2.24 1 .65.71 1.89 1.1 1.4 2.48 0 .06.19.23.32.31.749.574 1.276 1.39 1.49 2.31.43 1.31.63 1.32 1.76.21l-2.31-2.43 1.1-.41c.4-.83-.46-2.08 1.18-2.46v3l2.13-1.54.8 1.1c.37.54 1.07 1 .73 1.77s-1.27.29-2 .31a2.71 2.71 0 0 0 .37.43 3.77 3.77 0 0 1 1.88 3.04c0 .63.3 1.35 1.31 1.15.28-.06.63.21 1 .33.64-.85 1-1 1.64-.29.577.696 1.086 1.446 1.52 2.24l-.68-2.21.28-.2c.718.717 1.387 1.482 2 2.29.65 1 .39 1.58-.7 2.1a6 6 0 0 1-.7.21 5.15 5.15 0 0 0 2.64 1.8 5.24 5.24 0 0 1 1.8 1.39c.351.386.528.899.49 1.42-.09.42-.66.73-1.07 1.16 3.61 1.45 7.05 3.13 9.4 6.65l-1.81.42 2.59.32c-.53 2.13-.37 2.4 1.54 2.56.629.06 1.183.437 1.47 1 .27.43.64.78 1.15.49s1.15-.94 2-.5c1.89-1 3.63-.24 5.41.39s3.34 1.15 5 1.67a2.45 2.45 0 0 0 2.35-.39c-1.62-.63-3.44-.64-4.78-1.86-.09-.08-.3 0-.46 0a5.79 5.79 0 0 1-4.2-2.14c-.504-.589-1.178-1.008-1.93-1.2-1.943-.496-3.757-1.403-5.32-2.66-.74-.63-1.68-1.38-1.88-2.22-.375-1.054-.992-2.006-1.8-2.78-.73-1-1.36-2-2.07-2.94l-2.31-3-.53.82c-.57-1.52-.63-1.59-2.31-2.7l.9-1.21-2.44-8.91-1.32 1.66c.17-1.12-.08-2 .93-2.44a1 1 0 0 0 .16-.84c-.52-.39-.29-.82-.24-1.27a2.37 2.37 0 0 0 0-1.24c-.71-1.34-.14-2.74-.27-4.09a4.28 4.28 0 0 0-.05-1.09c-.188-.407-.419-.793-.69-1.15l-1 1.22c-1.346-1.097-1.317-3.163.06-4.22l1.33 1.12c.058-1 .058-2.001 0-3-.13-1.11-.67-1.34-1.76-1-.596.167-1.2.304-1.81.41l-2.64.55.94 1.34-2.9-.56c-.34 1.19-1.4.9-2.29 1a2.67 2.67 0 0 1-2.52 1.83c-2.06.27-2.07.25-1.18 2.08 0 .05 0 .09.07.14.57 1.23.16 2.1-1.22 2.13s-1.68 1.22-2.34 2c-.36.42.27 1.4.87 1.32 1.31-.21 2.03.57 2.8 1.34h.03zm-7.92-14.44a21.81 21.81 0 0 0-2.87 1c-1.57.8-1.73 1.85-.73 3.4.43-2.55.78-3.73 2.56-3-.1.54-.42 1.14-.25 1.52a2 2 0 0 0 1.89 1.18 1.12 1.12 0 0 0 .76-.4c.64-.78 2-1.31 2.6-.72s1.22.39 1.82.13c.86-.36 1.7-.77 2.54-1.2a10.39 10.39 0 0 1 4.33-1.2 30.01 30.01 0 0 0 8.58-1.71c.871-.325 1.64-.873 2.23-1.59.85-1.06.41-1.94-1-2s-2.86.16-4.27.25l.47 1.8c-.59 0-1.14.16-1.34 0a5.73 5.73 0 0 1-.81-1.53c-4.82.64-9.31 2.66-14 3.43 0 .74 1 .57.67 1.4-.11.27.37.81.57 1.22-1.68.79-3.06.1-3.75-1.98h0zm4.19 27.44l-.29.18.7 1.12 4.55 7a43.2 43.2 0 0 0 3.47 4.26c.832.85 1.707 1.658 2.62 2.42.755.831 1.818 1.315 2.94 1.34-.217-.856-.878-1.528-1.73-1.76-2-.87-3.07-2.67-4.49-4.12a4.77 4.77 0 0 0-1.44-1.31c-.597-.303-1.066-.811-1.32-1.43-.51-1.45-1-2.85-2.34-3.76-.11-.08-.15-.27-.24-.4l-2.43-3.54zm8 1.89c.301.797.745 1.532 1.31 2.17.55.48.63 1.4 1.57 1.69a11.31 11.31 0 0 1 2.18 1.2l.25-.27-2.7-3.86.84-1.67-2.24-.65-1.21 1.39zm-.64-7.24a3.04 3.04 0 0 0 0 .27c.19 1.17-.09 1.41-1.23 1-.29-.1-.57-.27-.87-.35-.45-.11-.88-.62-1.49-.13.36.69.56 1.43 1.37 1.8 1.15.51 2.25 1.09 3.39 1.61.325.109.66.183 1 .22l-2.17-4.42zm2.1-29.29l-6.42 1.72 2.57.57c.53-.88.69-.91 1.27-.27l1.04 1.18c1.44 0 .47-1.73 1.76-1.55.005-.047.005-.094 0-.14l-.26-1.51h.04zm8.75 53.71c1.57 1.25 3.55 1.46 4.6 3.06a18.68 18.68 0 0 0 6.56 1.7l-11.16-4.76zm16.37 5.7c3.9.44 7.78 1.14 11.71.21-3.97.29-7.84-.76-11.76-.21h.05zm-38.37-35.59l-.22.16-.84-1-.18.13 3 6.48a3.99 3.99 0 0 0-.31-1.85c-.23-.63-.8-1.31-.7-1.86.114-1.099-.151-2.203-.75-3.13 0 0-.12-.08-.28-.16l.28 1.23zm19.78 21.16c-1.54-.59-3-1.65-4.8-1.25.94 1.54 2.69 2.02 4.8 1.25zm-9.72-45.08l.4-1.52a5.68 5.68 0 0 0-2.88-.88c.59 1.91 1.02 2.32 2.48 2.4zm50.43 55.87v-.44c-2-.14-4-.85-6-.21v.32l6 .33zm-57.86-64.57l2.55-.12c-.18-.88-.59-1.18-1.18-1.19-.79-.01-1.18.52-1.37 1.31h0zm40 63.16a2.28 2.28 0 0 0-2.14 1.13l1.79.47.35-1.6z"/><path d="M295.702 196.643c-.28 1.11-1 1.39-2 1.54a7.23 7.23 0 0 1-1.76-4.42c1.98.11 2.78 1.57 3.76 2.88h0zm2.86-3.83c1.05 1.65 1.91 3.11 1.07 5-1.77-1.43-2.13-3.05-1.07-5zm-6.47-1.51c-1.24-.5-2.85-.43-3.36-2.17 1.58-1 2.82-.28 4 .52l-.08.34-2.42-.81 2.07 1.77-.21.35zm-4.38 1.9l-1.33-1.92 1.2.34-.36-.94c.68.33 1.36.46 1.68.88a1.8 1.8 0 0 1 .19 1.55c-.32.76-.94.3-1.44.07l.06.02zm4.81-4.36c-1.92-.7-2-.84-1.91-2.37 1.49.71 1.49.71 1.91 2.37zm-7.38-9.14c.08-.69.43-.92 1-.87s1.06.65 1.49 1.72c-1.1.27-1.7-.55-2.49-.85h0zm4.08-2.5c1.45-1.17 2.81-1.05 4.26-.94-.54.7-.54.7-4.26.94z"/></svg>