<svg xmlns="http://www.w3.org/2000/svg" width="97" height="97" xmlns:v="https://vecta.io/nano"><path fill="#f05133" d="M92.71 44.408L52.591 4.291a5.92 5.92 0 0 0-8.369 0l-8.33 8.332L46.459 23.19c2.456-.83 5.272-.273 7.229 1.685a7.03 7.03 0 0 1 1.67 7.275l10.186 10.185c2.465-.85 5.307-.3 7.275 1.671 2.75 2.75 2.75 7.206 0 9.958s-7.208 2.751-9.961 0c-2.068-2.07-2.58-5.11-1.531-7.658l-9.5-9.499v24.997a7.06 7.06 0 0 1 1.861 1.332c2.75 2.75 2.75 7.206 0 9.959s-7.209 2.749-9.957 0c-2.75-2.754-2.75-7.21 0-9.959.68-.679 1.467-1.193 2.307-1.537v-25.23a6.98 6.98 0 0 1-2.307-1.537c-2.083-2.082-2.584-5.14-1.516-7.698L31.798 16.715 4.288 44.222a5.92 5.92 0 0 0 0 8.371l40.121 40.118a5.92 5.92 0 0 0 8.369 0L92.71 52.779a5.92 5.92 0 0 0 0-8.371z"/></svg>